<svg width="400" height="250" viewBox="0 0 400 250" xmlns="http://www.w3.org/2000/svg">
  <defs>
    <linearGradient id="jarvisGrad" x1="0%" y1="0%" x2="100%" y2="100%">
      <stop offset="0%" style="stop-color:#3B82F6;stop-opacity:1" />
      <stop offset="50%" style="stop-color:#6366F1;stop-opacity:1" />
      <stop offset="100%" style="stop-color:#8B5CF6;stop-opacity:1" />
    </linearGradient>
    <linearGradient id="chatGrad" x1="0%" y1="0%" x2="100%" y2="100%">
      <stop offset="0%" style="stop-color:#10B981;stop-opacity:1" />
      <stop offset="100%" style="stop-color:#34D399;stop-opacity:1" />
    </linearGradient>
    <radialGradient id="aiCore" cx="50%" cy="50%" r="50%">
      <stop offset="0%" style="stop-color:#60A5FA;stop-opacity:1" />
      <stop offset="100%" style="stop-color:#3B82F6;stop-opacity:0.3" />
    </radialGradient>
  </defs>
  
  <!-- Background -->
  <rect width="400" height="250" fill="#0F172A" rx="12"/>
  
  <!-- AI Core -->
  <circle cx="200" cy="80" r="35" fill="url(#aiCore)"/>
  <circle cx="200" cy="80" r="25" fill="none" stroke="#60A5FA" stroke-width="2" opacity="0.6"/>
  <circle cx="200" cy="80" r="15" fill="none" stroke="#60A5FA" stroke-width="1" opacity="0.8"/>
  
  <!-- AI Brain pattern -->
  <path d="M180 75 Q200 65 220 75 Q215 85 200 85 Q185 85 180 75" fill="#FFFFFF" opacity="0.9"/>
  <circle cx="192" cy="78" r="2" fill="#1F2937"/>
  <circle cx="208" cy="78" r="2" fill="#1F2937"/>
  <path d="M188 85 Q200 92 212 85" stroke="#1F2937" stroke-width="1" fill="none"/>
  
  <!-- Neural connections -->
  <g opacity="0.7">
    <line x1="165" y1="80" x2="135" y2="60" stroke="#60A5FA" stroke-width="2"/>
    <line x1="235" y1="80" x2="265" y2="60" stroke="#60A5FA" stroke-width="2"/>
    <line x1="180" y1="105" x2="160" y2="130" stroke="#60A5FA" stroke-width="2"/>
    <line x1="220" y1="105" x2="240" y2="130" stroke="#60A5FA" stroke-width="2"/>
    <line x1="200" y1="115" x2="200" y2="140" stroke="#60A5FA" stroke-width="2"/>
    
    <circle cx="135" cy="60" r="4" fill="#60A5FA"/>
    <circle cx="265" cy="60" r="4" fill="#60A5FA"/>
    <circle cx="160" cy="130" r="4" fill="#60A5FA"/>
    <circle cx="240" cy="130" r="4" fill="#60A5FA"/>
    <circle cx="200" cy="140" r="4" fill="#60A5FA"/>
  </g>
  
  <!-- Chat interface -->
  <rect x="50" y="30" width="120" height="80" fill="#1E293B" stroke="#475569" stroke-width="1" rx="8"/>
  
  <!-- Chat messages -->
  <rect x="60" y="40" width="80" height="12" fill="#3B82F6" rx="6"/>
  <text x="100" y="49" font-family="Arial" font-size="8" text-anchor="middle" fill="white">¿Cómo puedo ayudarte?</text>
  
  <rect x="70" y="58" width="90" height="12" fill="#475569" rx="6"/>
  <text x="115" y="67" font-family="Arial" font-size="8" text-anchor="middle" fill="white">Necesito investigar sobre IA</text>
  
  <rect x="60" y="76" width="85" height="12" fill="#10B981" rx="6"/>
  <text x="102" y="85" font-family="Arial" font-size="8" text-anchor="middle" fill="white">Te ayudo con eso...</text>
  
  <!-- Research documents -->
  <rect x="230" y="30" width="120" height="80" fill="#1E293B" stroke="#475569" stroke-width="1" rx="8"/>
  
  <!-- Document icons -->
  <rect x="240" y="40" width="25" height="30" fill="#F59E0B" rx="2"/>
  <rect x="245" y="35" width="15" height="3" fill="#FCD34D" rx="1"/>
  <text x="252" y="58" font-family="Arial" font-size="6" text-anchor="middle" fill="white">PDF</text>
  
  <rect x="275" y="40" width="25" height="30" fill="#EF4444" rx="2"/>
  <rect x="280" y="35" width="15" height="3" fill="#FCA5A5" rx="1"/>
  <text x="287" y="58" font-family="Arial" font-size="6" text-anchor="middle" fill="white">DOC</text>
  
  <rect x="310" y="40" width="25" height="30" fill="#8B5CF6" rx="2"/>
  <rect x="315" y="35" width="15" height="3" fill="#C4B5FD" rx="1"/>
  <text x="322" y="58" font-family="Arial" font-size="6" text-anchor="middle" fill="white">WEB</text>
  
  <!-- Search results -->
  <rect x="240" y="80" width="90" height="8" fill="#475569" rx="2"/>
  <rect x="240" y="92" width="70" height="8" fill="#475569" rx="2"/>
  <rect x="240" y="104" width="85" height="8" fill="#475569" rx="2"/>
  
  <!-- API connections -->
  <g opacity="0.6">
    <line x1="170" y1="70" x2="230" y2="70" stroke="#60A5FA" stroke-width="2" stroke-dasharray="5,3"/>
    <text x="200" y="67" font-family="Arial" font-size="8" text-anchor="middle" fill="#60A5FA">API</text>
  </g>
  
  <!-- Workflow automation -->
  <rect x="80" y="140" width="240" height="40" fill="#1E293B" stroke="#475569" stroke-width="1" rx="6"/>
  
  <!-- n8n workflow nodes -->
  <circle cx="110" cy="160" r="8" fill="#EA4B71"/>
  <text x="110" y="164" font-family="Arial" font-size="6" text-anchor="middle" fill="white">n8n</text>
  
  <rect x="140" y="152" width="16" height="16" fill="#2496ED" rx="2"/>
  <text x="148" y="162" font-family="Arial" font-size="6" text-anchor="middle" fill="white">🐳</text>
  
  <circle cx="180" cy="160" r="8" fill="#F59E0B"/>
  <text x="180" y="164" font-family="Arial" font-size="6" text-anchor="middle" fill="white">AI</text>
  
  <rect x="210" y="152" width="16" height="16" fill="#10B981" rx="2"/>
  <text x="218" y="162" font-family="Arial" font-size="6" text-anchor="middle" fill="white">⚡</text>
  
  <circle cx="250" cy="160" r="8" fill="#8B5CF6"/>
  <text x="250" y="164" font-family="Arial" font-size="6" text-anchor="middle" fill="white">DB</text>
  
  <circle cx="290" cy="160" r="8" fill="#EF4444"/>
  <text x="290" y="164" font-family="Arial" font-size="6" text-anchor="middle" fill="white">📊</text>
  
  <!-- Workflow connections -->
  <line x1="118" y1="160" x2="132" y2="160" stroke="#60A5FA" stroke-width="2"/>
  <line x1="156" y1="160" x2="172" y2="160" stroke="#60A5FA" stroke-width="2"/>
  <line x1="188" y1="160" x2="202" y2="160" stroke="#60A5FA" stroke-width="2"/>
  <line x1="226" y1="160" x2="242" y2="160" stroke="#60A5FA" stroke-width="2"/>
  <line x1="258" y1="160" x2="282" y2="160" stroke="#60A5FA" stroke-width="2"/>
  
  <!-- Title and labels -->
  <text x="200" y="210" font-family="Arial" font-size="16" font-weight="bold" text-anchor="middle" fill="#FFFFFF">Jarvis - Asistente de Investigación IA</text>
  <text x="200" y="225" font-family="Arial" font-size="12" text-anchor="middle" fill="#94A3B8">Sistema completo con frontend Next.js y backend FastAPI</text>
  
  <!-- Tech badges -->
  <rect x="50" y="190" width="35" height="16" fill="#000000" rx="8"/>
  <text x="67" y="201" font-family="Arial" font-size="9" font-weight="bold" text-anchor="middle" fill="white">Next.js</text>
  
  <rect x="95" y="190" width="45" height="16" fill="#3178C6" rx="8"/>
  <text x="117" y="201" font-family="Arial" font-size="9" font-weight="bold" text-anchor="middle" fill="white">TypeScript</text>
  
  <rect x="150" y="190" width="40" height="16" fill="#009688" rx="8"/>
  <text x="170" y="201" font-family="Arial" font-size="9" font-weight="bold" text-anchor="middle" fill="white">FastAPI</text>
  
  <rect x="200" y="190" width="35" height="16" fill="#3776AB" rx="8"/>
  <text x="217" y="201" font-family="Arial" font-size="9" font-weight="bold" text-anchor="middle" fill="white">Python</text>
  
  <rect x="245" y="190" width="25" height="16" fill="#EA4B71" rx="8"/>
  <text x="257" y="201" font-family="Arial" font-size="9" font-weight="bold" text-anchor="middle" fill="white">n8n</text>
  
  <rect x="280" y="190" width="35" height="16" fill="#2496ED" rx="8"/>
  <text x="297" y="201" font-family="Arial" font-size="9" font-weight="bold" text-anchor="middle" fill="white">Docker</text>
  
  <rect x="325" y="190" width="25" height="16" fill="#412991" rx="8"/>
  <text x="337" y="201" font-family="Arial" font-size="9" font-weight="bold" text-anchor="middle" fill="white">IA</text>
</svg>
