<svg width="400" height="250" viewBox="0 0 400 250" xmlns="http://www.w3.org/2000/svg">
  <defs>
    <linearGradient id="reactGrad" x1="0%" y1="0%" x2="100%" y2="100%">
      <stop offset="0%" style="stop-color:#61DAFB;stop-opacity:1" />
      <stop offset="100%" style="stop-color:#21A1C4;stop-opacity:1" />
    </linearGradient>
    <linearGradient id="firebaseGrad" x1="0%" y1="0%" x2="100%" y2="100%">
      <stop offset="0%" style="stop-color:#FFA000;stop-opacity:1" />
      <stop offset="100%" style="stop-color:#FFB74D;stop-opacity:1" />
    </linearGradient>
    <linearGradient id="kanbanGrad" x1="0%" y1="0%" x2="100%" y2="100%">
      <stop offset="0%" style="stop-color:#3B82F6;stop-opacity:1" />
      <stop offset="100%" style="stop-color:#60A5FA;stop-opacity:1" />
    </linearGradient>
  </defs>
  
  <!-- Background -->
  <rect width="400" height="250" fill="#F8FAFC" rx="12"/>
  
  <!-- Kanban Board -->
  <rect x="20" y="20" width="360" height="180" fill="white" stroke="#E5E7EB" stroke-width="2" rx="8"/>
  
  <!-- Header -->
  <rect x="30" y="30" width="340" height="25" fill="#3B82F6" rx="4"/>
  <text x="200" y="47" font-family="Arial" font-size="14" font-weight="bold" text-anchor="middle" fill="white">Taller de Coches - Kanban Board</text>
  
  <!-- Kanban Columns -->
  <!-- Entrada -->
  <rect x="40" y="70" width="80" height="120" fill="#F3F4F6" stroke="#D1D5DB" stroke-width="1" rx="4"/>
  <rect x="45" y="75" width="70" height="15" fill="#EF4444" rx="2"/>
  <text x="80" y="85" font-family="Arial" font-size="10" font-weight="bold" text-anchor="middle" fill="white">ENTRADA</text>
  
  <!-- Vehicle cards in Entrada -->
  <rect x="50" y="95" width="60" height="20" fill="white" stroke="#E5E7EB" stroke-width="1" rx="2"/>
  <text x="80" y="108" font-family="Arial" font-size="8" text-anchor="middle" fill="#374151">BMW X5</text>
  
  <rect x="50" y="120" width="60" height="20" fill="white" stroke="#E5E7EB" stroke-width="1" rx="2"/>
  <text x="80" y="133" font-family="Arial" font-size="8" text-anchor="middle" fill="#374151">Audi A4</text>
  
  <!-- Diagnóstico -->
  <rect x="130" y="70" width="80" height="120" fill="#F3F4F6" stroke="#D1D5DB" stroke-width="1" rx="4"/>
  <rect x="135" y="75" width="70" height="15" fill="#F59E0B" rx="2"/>
  <text x="170" y="85" font-family="Arial" font-size="10" font-weight="bold" text-anchor="middle" fill="white">DIAGNÓSTICO</text>
  
  <!-- Vehicle cards in Diagnóstico -->
  <rect x="140" y="95" width="60" height="20" fill="white" stroke="#E5E7EB" stroke-width="1" rx="2"/>
  <text x="170" y="108" font-family="Arial" font-size="8" text-anchor="middle" fill="#374151">Mercedes C</text>
  
  <rect x="140" y="120" width="60" height="20" fill="white" stroke="#E5E7EB" stroke-width="1" rx="2"/>
  <text x="170" y="133" font-family="Arial" font-size="8" text-anchor="middle" fill="#374151">VW Golf</text>
  
  <rect x="140" y="145" width="60" height="20" fill="white" stroke="#E5E7EB" stroke-width="1" rx="2"/>
  <text x="170" y="158" font-family="Arial" font-size="8" text-anchor="middle" fill="#374151">Toyota</text>
  
  <!-- Reparación -->
  <rect x="220" y="70" width="80" height="120" fill="#F3F4F6" stroke="#D1D5DB" stroke-width="1" rx="4"/>
  <rect x="225" y="75" width="70" height="15" fill="#8B5CF6" rx="2"/>
  <text x="260" y="85" font-family="Arial" font-size="10" font-weight="bold" text-anchor="middle" fill="white">REPARACIÓN</text>
  
  <!-- Vehicle cards in Reparación -->
  <rect x="230" y="95" width="60" height="20" fill="white" stroke="#E5E7EB" stroke-width="1" rx="2"/>
  <text x="260" y="108" font-family="Arial" font-size="8" text-anchor="middle" fill="#374151">Ford Focus</text>
  
  <rect x="230" y="120" width="60" height="20" fill="white" stroke="#E5E7EB" stroke-width="1" rx="2"/>
  <text x="260" y="133" font-family="Arial" font-size="8" text-anchor="middle" fill="#374151">Nissan</text>
  
  <!-- Entrega -->
  <rect x="310" y="70" width="60" height="120" fill="#F3F4F6" stroke="#D1D5DB" stroke-width="1" rx="4"/>
  <rect x="315" y="75" width="50" height="15" fill="#10B981" rx="2"/>
  <text x="340" y="85" font-family="Arial" font-size="10" font-weight="bold" text-anchor="middle" fill="white">ENTREGA</text>
  
  <!-- Vehicle cards in Entrega -->
  <rect x="320" y="95" width="40" height="20" fill="white" stroke="#E5E7EB" stroke-width="1" rx="2"/>
  <text x="340" y="108" font-family="Arial" font-size="8" text-anchor="middle" fill="#374151">Honda</text>
  
  <!-- Entregados Hoy (Special column) -->
  <rect x="20" y="210" width="360" height="30" fill="#10B981" rx="4"/>
  <text x="200" y="225" font-family="Arial" font-size="12" font-weight="bold" text-anchor="middle" fill="white">🚗 Entregados Hoy: 3 vehículos</text>
  <text x="200" y="235" font-family="Arial" font-size="9" text-anchor="middle" fill="white">BMW X3 • Audi A6 • Mercedes E-Class</text>
  
  <!-- Firebase Auth -->
  <circle cx="50" cy="30" r="12" fill="url(#firebaseGrad)"/>
  <path d="M40 25 Q50 20 60 25 Q55 30 50 30 Q45 30 40 25" fill="white" opacity="0.9"/>
  <text x="50" y="35" font-family="Arial" font-size="8" text-anchor="middle" fill="white">Auth</text>
  
  <!-- React Logo -->
  <circle cx="350" cy="30" r="12" fill="url(#reactGrad)"/>
  <circle cx="350" cy="30" r="6" fill="none" stroke="white" stroke-width="1"/>
  <ellipse cx="350" cy="30" rx="10" ry="4" fill="none" stroke="white" stroke-width="1"/>
  <ellipse cx="350" cy="30" rx="10" ry="4" fill="none" stroke="white" stroke-width="1" transform="rotate(60 350 30)"/>
  <ellipse cx="350" cy="30" rx="10" ry="4" fill="none" stroke="white" stroke-width="1" transform="rotate(-60 350 30)"/>
  <circle cx="350" cy="30" r="2" fill="white"/>
  
  <!-- Real-time indicator -->
  <circle cx="200" cy="30" r="6" fill="#10B981"/>
  <circle cx="200" cy="30" r="3" fill="white"/>
  <text x="210" y="35" font-family="Arial" font-size="8" fill="#10B981">Tiempo Real</text>
  
  <!-- Tech badges -->
  <rect x="50" y="190" width="35" height="16" fill="#61DAFB" rx="8"/>
  <text x="67" y="201" font-family="Arial" font-size="9" font-weight="bold" text-anchor="middle" fill="white">React</text>
  
  <rect x="95" y="190" width="30" height="16" fill="#4FC3F7" rx="8"/>
  <text x="110" y="201" font-family="Arial" font-size="9" font-weight="bold" text-anchor="middle" fill="white">Vite</text>
  
  <rect x="135" y="190" width="50" height="16" fill="url(#firebaseGrad)" rx="8"/>
  <text x="160" y="201" font-family="Arial" font-size="9" font-weight="bold" text-anchor="middle" fill="white">Firebase</text>
  
  <rect x="195" y="190" width="60" height="16" fill="#06B6D4" rx="8"/>
  <text x="225" y="201" font-family="Arial" font-size="9" font-weight="bold" text-anchor="middle" fill="white">Tailwind</text>
  
  <rect x="265" y="190" width="50" height="16" fill="#8B5CF6" rx="8"/>
  <text x="290" y="201" font-family="Arial" font-size="9" font-weight="bold" text-anchor="middle" fill="white">Router</text>
  
  <rect x="325" y="190" width="35" height="16" fill="#10B981" rx="8"/>
  <text x="342" y="201" font-family="Arial" font-size="9" font-weight="bold" text-anchor="middle" fill="white">Kanban</text>
</svg>
